Coordinates
version=1
nRows=16
nColumns=40
inDegrees=yes

Units are S.I. units (second, meters, Newtons, ...)
Angles are in degrees.

endheader
time	pelvis_tilt	pelvis_list	pelvis_rotation	pelvis_tx	pelvis_ty	pelvis_tz	hip_flexion_r	hip_adduction_r	hip_rotation_r	knee_angle_r	knee_angle_r_beta	ankle_angle_r	subtalar_angle_r	mtp_angle_r	hip_flexion_l	hip_adduction_l	hip_rotation_l	knee_angle_l	knee_angle_l_beta	ankle_angle_l	subtalar_angle_l	mtp_angle_l	lumbar_extension	lumbar_bending	lumbar_rotation	arm_flex_r	arm_add_r	arm_rot_r	elbow_flex_r	pro_sup_r	wrist_flex_r	wrist_dev_r	arm_flex_l	arm_add_l	arm_rot_l	elbow_flex_l	pro_sup_l	wrist_flex_l	wrist_dev_l
     35.46000000	     -5.81014131	     -5.95763191	      4.41489687	      1.11483389	      0.92666768	      0.49776943	     15.69278652	      2.70973274	    -14.50280864	     18.33028267	     18.33028267	     10.21185123	     -2.53646438	     -2.35280466	     34.41744179	     -9.89696597	      5.45015974	     70.17073688	     70.17073688	      6.14447424	    -18.99000081	     13.92502584	    -13.20386466	      4.91584609	      3.88866579	     12.47797693	    -20.43980591	     -3.97110829	     66.91843795	     44.14789272	      0.00000000	      0.00000000	      5.99375919	    -10.51516412	     -3.75555118	     80.89628785	     45.37351894	      0.00000000	      0.00000000
     35.47207143	     -6.01084450	     -6.10396802	      4.82395384	      1.11271872	      0.92682382	      0.49780912	     15.14258680	      2.96940539	    -14.64814426	     17.57657599	     17.57657599	     10.24351757	     -2.69670235	     -2.34718228	     36.18547398	     -9.85728830	      5.63262329	     68.87916967	     68.87916967	      7.00483722	    -19.07194303	     15.04193369	    -13.11569506	      5.04452799	      3.47802986	     14.26922860	    -20.65276143	     -3.56992251	     69.23052697	     44.11136868	      0.00000000	      0.00000000	      5.67603432	    -10.12484360	     -4.45855782	     76.98040675	     45.45691505	      0.00000000	      0.00000000
     35.48414286	     -6.24152328	     -6.24781754	      5.24296941	      1.11055772	      0.92680252	      0.49776328	     14.74202859	      3.19088865	    -14.78618477	     17.03368089	     17.03368089	     10.32642468	     -2.95438872	     -2.37359244	     37.83760343	     -9.74784297	      5.81997558	     67.35786944	     67.35786944	      7.77492063	    -19.15523847	     16.16283241	    -13.02436614	      5.18957155	      3.33591484	     15.74802174	    -21.07375412	     -3.40357412	     71.99623219	     44.08576646	      0.00000000	      0.00000000	      5.74187547	     -9.75667300	     -4.69102164	     72.72784045	     45.53389683	      0.00000000	      0.00000000
     35.49621429	     -6.45270864	     -6.34851810	      5.62684947	      1.10849166	      0.92677205	      0.49764736	     14.33409749	      3.36380993	    -14.90835684	     16.52723769	     16.52723769	     10.44209760	     -3.18055214	     -2.37325828	     39.26218455	     -9.57307386	      5.94566015	     65.56783729	     65.56783729	      8.46430945	    -19.21094848	     17.17050898	    -12.96505927	      5.29348663	      3.28930965	     17.19884960	    -21.39662419	     -3.52113047	     74.64578170	     44.07793322	      0.00000000	      0.00000000	      5.98019153	     -9.40615134	     -4.79609676	     68.28663711	     45.59775539	      0.00000000	      0.00000000
     35.50828571	     -6.64762887	     -6.38803783	      5.96766083	      1.10650059	      0.92673368	      0.49739065	     13.93696700	      3.45963302	    -15.00279448	     16.07818042	     16.07818042	     10.57250585	     -3.34569047	     -2.36364824	     40.45345313	     -9.30623511	      6.02442948	     63.50043599	     63.50043599	      9.00482964	    -19.23508940	     17.89510244	    -12.92006969	      5.33921091	      3.20064601	     18.78623280	    -21.61812595	     -3.62080310	     77.03813485	     44.06586695	      0.00000000	      0.00000000	      6.21910168	     -9.08285941	     -4.91653885	     63.95151737	     45.63562063	      0.00000000	      0.00000000
     35.52035714	     -6.79060164	     -6.36774534	      6.27752211	      1.10465922	      0.92670720	      0.49697189	     13.49913156	      3.47846100	    -15.10038623	     15.69488934	     15.69488934	     10.77475260	     -3.43054478	     -2.35908824	     41.36387361	     -8.95026467	      6.08066415	     61.15076053	     61.15076053	      9.39725345	    -19.24483712	     18.19114117	    -12.97385286	      5.30645624	      2.64969344	     20.77935283	    -21.26440962	     -3.78631750	     79.09390073	     44.03097347	      0.00000000	      0.00000000	      5.65896186	     -9.18471513	     -4.85344600	     61.24855399	     45.61936449	      0.00000000	      0.00000000
     35.53242857	     -6.99221000	     -6.29624592	      6.50063755	      1.10284029	      0.92660011	      0.49629034	     13.16436124	      3.40370675	    -15.18599592	     15.39968740	     15.39968740	     10.95770010	     -3.43445018	     -2.43566440	     42.13025350	     -8.49491662	      6.14120484	     58.55453800	     58.55453800	      9.75158549	    -19.21784875	     18.49643193	    -12.89990828	      5.29373412	      3.17466207	     21.82423152	    -21.92082709	     -3.99421954	     81.73872497	     44.03604544	      0.00000000	      0.00000000	      6.84384522	     -8.36278242	     -5.19620341	     55.22813436	     45.67756051	      0.00000000	      0.00000000
     35.54450000	     -7.19253993	     -6.16616440	      6.66907589	      1.10113470	      0.92645208	      0.49549080	     12.84305404	      3.24659749	    -15.28043503	     15.17003513	     15.17003513	     11.19362824	     -3.32101440	     -2.50530670	     42.67837591	     -7.96651538	      6.20784983	     55.70203762	     55.70203762	      9.90759216	    -19.14758452	     18.22177691	    -12.87676556	      5.19339801	      3.18154564	     23.33886433	    -21.91975020	     -4.15871015	     83.98859570	     44.03787833	      0.00000000	      0.00000000	      7.11636708	     -8.08647157	     -5.18922872	     51.07802814	     45.69780897	      0.00000000	      0.00000000
     35.55657143	     -7.36164962	     -5.99812210	      6.78178708	      1.09957688	      0.92628528	      0.49450077	     12.51452066	      3.03246944	    -15.35719557	     15.02749290	     15.02749290	     11.47706307	     -3.17217201	     -2.57568737	     42.97251187	     -7.36745937	      6.35683241	     52.60887129	     52.60887129	      9.91503800	    -19.02161410	     17.48323597	    -12.88977580	      5.06791560	      3.24647936	     24.84773949	    -21.87104202	     -4.31397237	     86.19961772	     44.04973116	      0.00000000	      0.00000000	      7.35726241	     -7.79160299	     -5.23923253	     47.06810171	     45.72675982	      0.00000000	      0.00000000
     35.56864286	     -7.54755712	     -5.82068381	      6.83171712	      1.09814340	      0.92602898	      0.49337499	     12.21612823	      2.78985009	    -15.42938466	     14.93219373	     14.93219373	     11.79820695	     -2.92668699	     -2.64837633	     43.08393465	     -6.75905989	      6.57204739	     49.30692814	     49.30692814	      9.76939793	    -18.79733124	     16.32450952	    -12.88429165	      4.93618760	      3.27575954	     26.40696136	    -21.71255017	     -4.33087879	     88.28688710	     44.06445696	      0.00000000	      0.00000000	      7.44662880	     -7.54410720	     -5.27529551	     43.37595075	     45.75322089	      0.00000000	      0.00000000
     35.58071429	     -7.73709751	     -5.66388783	      6.82126653	      1.09679400	      0.92568174	      0.49211650	     11.93572285	      2.55699839	    -15.47127044	     14.86723783	     14.86723783	     12.10761627	     -2.69326745	     -2.75789734	     43.08122053	     -6.18372001	      6.86848088	     45.95976197	     45.95976197	      9.81531964	    -18.39181556	     15.75234137	    -12.89439953	      4.81862495	      2.97123168	     28.20008304	    -21.11756198	     -4.19889623	     90.20949956	     44.03539968	      0.00000000	      0.00000000	      6.84129870	     -7.55061495	     -5.18877832	     41.06533924	     45.74018137	      0.00000000	      0.00000000
     35.59278571	     -7.83581900	     -5.41213433	      6.72885611	      1.09578128	      0.92544993	      0.49079031	     11.52423634	      2.25091669	    -15.37566253	     14.80151358	     14.80151358	     12.42983834	     -2.49398972	     -2.86946825	     42.76330666	     -5.62790911	      7.07664521	     42.53218867	     42.53218867	     10.06897979	    -17.66536865	     15.42703780	    -12.95347579	      4.60292378	      2.93108569	     29.80770119	    -20.64661286	     -4.03212797	     91.72325436	     44.00206765	      0.00000000	      0.00000000	      6.15140296	     -7.53035931	     -5.09073246	     39.34238562	     45.72007371	      0.00000000	      0.00000000
     35.60485714	     -8.08416871	     -5.50612493	      6.63718635	      1.09475270	      0.92472872	      0.48952001	     11.34620494	      2.29084233	    -15.37707365	     14.78488591	     14.78488591	     12.67358449	     -2.37438539	     -2.99231989	     42.68938133	     -5.43085753	      7.41330327	     39.31107785	     39.31107785	     10.42718741	    -16.52661149	     15.42110627	    -12.78580556	      4.68008967	      3.20229280	     31.25475995	    -20.56079964	     -4.04790882	     92.68496618	     43.98257430	      0.00000000	      0.00000000	      5.29761174	     -7.26344211	     -4.98777666	     38.37044555	     45.69596522	      0.00000000	      0.00000000
     35.61692857	     -8.05917645	     -5.29863516	      6.46277501	      1.09440605	      0.92444702	      0.48804546	     10.68035560	      2.02816393	    -15.46777664	     14.57976340	     14.57976340	     13.09872435	     -1.66777792	     -3.10308640	     41.98627299	     -5.16070921	      7.31670668	     35.99838441	     35.99838441	     10.59375007	    -15.21479527	     14.35930923	    -12.96018964	      4.60013795	      2.60524286	     32.94198808	    -19.27689591	     -3.18752514	     95.16702568	     43.90504860	      0.00000000	      0.00000000	      4.81485606	     -7.41262295	     -4.70737348	     35.13615137	     45.65786817	      0.00000000	      0.00000000
     35.62900000	     -8.13281006	     -5.28377475	      6.22954151	      1.09415024	      0.92384588	      0.48661487	     10.15921925	      1.97930253	    -15.43502046	     14.40835738	     14.40835738	     13.47613794	     -1.19011440	     -3.18091457	     41.42144915	     -5.12959307	      7.13156987	     32.97368418	     32.97368418	     10.71317670	    -13.88609376	     13.76275139	    -12.91637547	      4.63664736	      2.78422448	     34.17584726	    -18.82789281	     -2.76514094	     96.55616009	     43.87251096	      0.00000000	      0.00000000	      4.25425793	     -7.29196905	     -4.49954275	     33.11855183	     45.62972324	      0.00000000	      0.00000000
     35.64107143	     -8.20464405	     -5.39700390	      5.98455541	      1.09427064	      0.92303431	      0.48512780	      9.58655547	      2.05603255	    -15.56103954	     14.17229992	     14.17229992	     13.94756588	     -0.43756272	     -3.10363817	     40.81058844	     -5.27565249	      6.79873537	     30.20164370	     30.20164370	     10.37634012	    -12.71071353	     12.21406187	    -12.75304904	      4.84222128	      3.15071315	     35.17971089	    -18.59214428	     -2.18790648	     98.26002244	     43.87375103	      0.00000000	      0.00000000	      4.19998740	     -7.03828829	     -4.01951021	     29.92954833	     45.59220097	      0.00000000	      0.00000000
